# xmcd
#
# Track frame offsets: 
#        150
#        18522
#        34624
#        57054
#        71209
#        91955
#
# Disc length: 1603 seconds
#
# Revision: 0
# Processed by: cddbd v1.5.1PL0 Copyright (c) Steve Scherf et al.
# Submitted via: ExactAudioCopy v0.95b3
#
DISCID=47064106
DTITLE=Honky Tonk Brothers - HTB Live at Country Music Messe Berlin
DYEAR=2005
DGENRE=Country
TTITLE0=Mercury Blues
TTITLE1=Who's Cheatin' Who
TTITLE2=Jadê
TTITLE3=Thank God for the Radio
TTITLE4=Drivin' My Life Away
TTITLE5=Friends in Low Places
EXTD=
EXTT0=
EXTT1=
EXTT2=
EXTT3=
EXTT4=
EXTT5=
PLAYORDER=
